<svg xmlns="http://www.w3.org/2000/svg" viewBox="0 0 800 540" preserveAspectRatio="xMidYMid slice">
  <defs>
    <linearGradient id="nlGradient" x1="0%" y1="0%" x2="100%" y2="100%">
      <stop offset="0%" stop-color="#10131d" />
      <stop offset="50%" stop-color="#1c2434" />
      <stop offset="100%" stop-color="#090b11" />
    </linearGradient>
  </defs>
  <rect width="800" height="540" fill="url(#nlGradient)" />
  <g fill="#202a3a" opacity="0.85">
    <rect x="120" y="120" width="110" height="320" rx="12" />
    <rect x="250" y="80" width="110" height="360" rx="12" />
    <rect x="380" y="100" width="110" height="340" rx="12" />
    <rect x="510" y="60" width="110" height="380" rx="12" />
  </g>
  <g fill="#2d3a4f" opacity="0.65">
    <rect x="140" y="150" width="70" height="200" />
    <rect x="270" y="110" width="70" height="220" />
    <rect x="400" y="130" width="70" height="220" />
    <rect x="530" y="90" width="70" height="250" />
  </g>
  <rect x="0" y="420" width="800" height="120" fill="#0c1017" opacity="0.75" />
  <path d="M0 360 C140 330 240 310 400 340 C540 370 660 360 800 320 L800 540 L0 540 Z" fill="#141923" opacity="0.8" />
</svg>
